<svg width="20" height="18" viewBox="0 0 20 18" fill="none" xmlns="http://www.w3.org/2000/svg">
<path d="M19.4077 11.5874L13.7861 2.13078C12.1204 -0.710259 7.87295 -0.710259 6.20728 2.13078L0.585649 11.5874C-1.08002 14.4284 1.00207 18 4.37504 18H7.24832C5.08295 17.7159 3.8337 15.3213 4.95803 13.4138L9.03891 6.55468C10.2465 4.48478 13.2864 4.48478 14.5356 6.55468L18.6165 13.4138C19.5326 14.956 18.908 16.7824 17.5338 17.5941C19.6992 16.5795 20.7402 13.8602 19.4077 11.5874Z" fill="white"/>
<path d="M11.4759 9.94382L9.23381 14.1685C8.56949 15.427 9.39988 17 10.7285 17H15.2541C16.5828 17 17.4547 15.427 16.7488 14.1685L14.5068 9.94382C13.8425 8.68539 12.1402 8.68539 11.4759 9.94382Z" fill="white"/>
</svg>
