<svg width="35" height="32" viewBox="0 0 35 32" fill="none" xmlns="http://www.w3.org/2000/svg">
<path d="M20.1355 17.3518L16.2392 24.1342C15.0847 26.1545 16.5278 28.6798 18.8367 28.6798H26.7014C29.0103 28.6798 30.5256 26.1545 29.2989 24.1342L25.4027 17.3518C24.2482 15.3315 21.2899 15.3315 20.1355 17.3518Z" fill="#191821"/>
<path d="M33.6281 20.5998L23.8874 3.78805C21.0012 -1.26268 13.6416 -1.26268 10.7555 3.78805L1.01476 20.5998C-1.87137 25.6505 1.7363 32 7.58072 32H12.5593C8.80732 31.4949 6.64272 27.2379 8.59086 23.8467L15.6619 11.6528C17.7543 7.97294 23.0215 7.97294 25.1861 11.6528L32.2572 23.8467C33.8445 26.5885 32.7622 29.8354 30.3812 31.2785C34.1331 29.4746 35.937 24.6404 33.6281 20.5998Z" fill="#3A3AE9"/>
</svg>
