<svg width="31" height="28" viewBox="0 0 31 28" fill="none" xmlns="http://www.w3.org/2000/svg">
<path d="M17.6185 15.1828L14.2093 21.1174C13.1991 22.8851 14.4618 25.0948 16.4821 25.0948H23.3637C25.384 25.0948 26.7098 22.8851 25.6366 21.1174L22.2273 15.1828C21.2172 13.415 18.6287 13.415 17.6185 15.1828Z" fill="white"/>
<path d="M29.4246 18.0248L20.9014 3.31454C18.3761 -1.10485 11.9364 -1.10485 9.41103 3.31454L0.887919 18.0248C-1.63745 22.4442 1.51926 28 6.63313 28H10.9894C7.70641 27.5581 5.81238 23.8331 7.51701 20.8658L13.7042 10.1962C15.535 6.97633 20.1438 6.97633 22.0379 10.1962L28.225 20.8658C29.614 23.2649 28.6669 26.106 26.5835 27.3687C29.8665 25.7903 31.4449 21.5603 29.4246 18.0248Z" fill="white"/>
</svg>
